<svg width="88" height="14" viewBox="0 0 88 14" fill="none" xmlns="http://www.w3.org/2000/svg">
<g opacity="0.3">
<path d="M6.1296 3.83633L7.52264 3.83624C8.39329 3.83618 9.29877 4.01025 9.29884 5.0202C9.2989 5.89085 8.74173 6.51775 7.10491 6.51786L5.57256 6.51797L6.1296 3.83633ZM0.000890672 13.6925L4.0407 13.6922L4.87626 9.68718L7.62751 9.68699C11.1101 9.68676 13.3736 7.38809 13.3735 4.70649C13.3733 1.78111 11.806 0.423005 9.36819 0.423169L2.78608 0.423611L0.000890672 13.6925Z" fill="white"/>
<path d="M18.3539 4.98477L18.8418 8.9549L16.2995 8.95507L18.3539 4.98477ZM9.6132 13.6918L13.7923 13.6916L14.8021 11.8109L19.1206 11.8106L19.3296 13.6912L23.3346 13.6909L21.3138 0.422371L17.274 0.422643L9.6132 13.6918Z" fill="white"/>
<path d="M25.0406 8.81517L22.1843 0.422302L26.2938 0.422027L27.5479 5.36723L30.7863 0.421725L35.5923 0.421402L29.1153 8.78007L28.1056 13.6906L24.031 13.6909L25.0406 8.81517Z" fill="white"/>
<path d="M45.3441 8.6396C45.1004 9.99783 44.0559 14.0029 38.5185 14.0033C34.6529 14.0035 32.8069 11.4962 32.8067 7.94393C32.8064 3.66033 35.4878 0.0730776 40.0151 0.0727737C42.9753 0.072575 45.6222 1.36096 45.6921 5.33111L41.8264 5.33137C41.8612 4.07764 41.2691 3.38116 40.0154 3.38124C37.7517 3.38139 36.916 5.9934 36.9161 7.874C36.9162 8.98843 37.1949 10.6601 39.0755 10.6599C40.3641 10.6598 41.0954 9.78915 41.3391 8.60505L45.3441 8.6396Z" fill="white"/>
<path d="M47.7117 0.420607L51.8212 0.420331L50.8463 5.01742L54.5727 5.01717L55.5475 0.420081L59.657 0.419805L56.8718 13.6887L52.7972 13.689L53.8764 8.43017L50.1501 8.43042L49.036 13.6892L44.9613 13.6895L47.7117 0.420607Z" fill="white"/>
<path d="M60.736 0.419735L71.7062 0.418999L71.0099 3.83199L64.1144 3.83245L63.7662 5.4693L70.1742 5.46887L69.5127 8.63807L63.1047 8.6385L62.7566 10.2753L69.7914 10.2749L69.0951 13.6879L57.9508 13.6886L60.736 0.419735Z" fill="white"/>
<path d="M74.5283 6.65263L71.4632 0.418987L75.9209 0.418688L77.2097 3.86637L79.8562 0.418424L84.6971 0.418099L79.1601 6.65232L82.3994 13.6869L77.8024 13.6873L76.3395 9.9958L73.2402 13.6876L68.2253 13.6879L74.5283 6.65263Z" fill="white"/>
<path d="M85.2186 1.01011C85.2186 0.522546 85.5668 0.139437 86.0544 0.139404C86.5071 0.139374 86.8902 0.522434 86.8903 1.01C86.8903 1.49756 86.5421 1.88067 86.0545 1.8807C85.6018 1.88073 85.2187 1.49767 85.2186 1.01011ZM85.0445 1.01012C85.0445 1.60216 85.4973 2.02004 86.0545 2.02001C86.6117 2.01997 87.0644 1.60203 87.0644 1.00999C87.0644 0.45277 86.6116 6.28217e-05 86.0544 0.000100225C85.4972 0.000137629 85.0445 0.452906 85.0445 1.01012ZM85.6714 1.60212L85.8455 1.60211L85.8455 1.11455L86.0196 1.11453L86.3331 1.6369L86.5421 1.63689L86.1938 1.11452C86.3679 1.11451 86.5072 1.01002 86.5072 0.801067C86.5072 0.557285 86.3679 0.452817 86.0892 0.452835L85.6713 0.452864L85.6714 1.60212ZM85.8455 0.592156L86.0893 0.592139C86.2286 0.59213 86.333 0.626949 86.333 0.766253C86.3331 0.940383 86.1938 0.975218 86.0196 0.97523L85.8455 0.975241L85.8455 0.592156Z" fill="white"/>
</g>
</svg>
